<?xml version="1.0" encoding="utf-8"?>
<!-- Generator: Adobe Illustrator 18.1.1, SVG Export Plug-In . SVG Version: 6.00 Build 0)  -->
<svg version="1.1" id="Layer_1" xmlns="http://www.w3.org/2000/svg" xmlns:xlink="http://www.w3.org/1999/xlink" x="0px" y="0px"
	 viewBox="0 0 100 89" enable-background="new 0 0 100 89" xml:space="preserve">
<path fill="#FFFFFF" d="M50.9,20l-1.4,1.3l-1.9-1.8c-0.4-0.1-0.8-0.2-1.2-0.3c-0.8,0.4-1.7,0.8-2.7,1.4c0.1-0.4,0.1-0.8,0-1.2
	c0.4-0.2,0.9-0.5,1.3-0.7c-2.2-1-4-2.8-5.1-5c-0.6,0.4-1.2,0.7-1.7,1.1c-0.8-0.5-1.6-0.9-2.2-1.2c-1,2.2-2.8,4-5,5
	c1.8,0.9,6.2,3.4,7.4,4.2c0.3,0.2,0.6,0.3,0.8,0.4V41c0,1.5,0.2,3,0.7,4.3c0,0.1,0,0.3,0,0.4v4h0c0,0.1,0,0.1,0,0.2v34.9
	c0,2.4,1.9,4.3,4.3,4.3c2.4,0,4.3-1.9,4.3-4.3V49.8c0-0.1,0-0.1,0-0.2h0.6c0,0.1,0,0.1,0,0.2l0,34.9c0,2.4,1.9,4.3,4.3,4.3h0
	c2.4,0,4.3-1.9,4.3-4.3V49.8c0-0.1,0-0.1,0-0.2h0.1l0-4.5c0,0,0.8-1,0.8-4.7c0-2,0.2-9.4,0.2-9.4l0-8.1c0,0-6.2-3.4-6.2-3.4L50.9,20
	z M50.9,20"/>
<path fill="#FFFFFF" d="M28.6,19.8l-1.9,1.5l-1.4-1.3c-3.1,1.4-6.9,3.2-7,3.2c-0.6,0.3-1.1,0.4-1.7,0.4c-0.7,0-1.3-0.2-1.9-0.5l0,0
	C11,20.2,8,15.2,7,13c-0.9-1.8-3.1-2.6-4.9-1.7c-1.8,0.9-2.6,3.1-1.7,4.9C1,17.5,6.9,29.2,15.8,32c0.5,0.2,1,0.3,1.5,0.4
	c0.1,2.2,0.2,6.6,0.2,8c0,3.7,0.8,4.7,0.8,4.7v4.5h0.1c0,0.1,0,0.1,0,0.2v34.9c0,2.4,1.9,4.3,4.3,4.3c2.4,0,4.3-1.9,4.3-4.3V49.8
	c0-0.1,0-0.1,0-0.2h0.6c0,0.1,0,0.1,0,0.2l0,34.9c0,2.4,1.9,4.3,4.3,4.3c2.4,0,4.3-1.9,4.3-4.3V49.8c0-0.1,0-0.1,0-0.2h0v-4
	c0-0.1,0-0.3,0-0.4c0.5-1.3,0.7-2.8,0.7-4.3v-18c-1.6,0.1-6.2-3.3-6.8-3.5C29.7,19.5,29,19.7,28.6,19.8L28.6,19.8z M28.6,19.8"/>
<path fill="#FFFFFF" d="M16.5,22.4c0.5,0,1-0.1,1.4-0.3c0,0,3.1-1.5,6-2.8c-2.6-0.7-4.8-2.4-6.1-4.6c-1.5,0.7-2.6,1.2-2.7,1.3
	c-1.7,0.8-2.4,2.8-1.6,4.5C14,21.7,15.2,22.4,16.5,22.4L16.5,22.4z M16.5,22.4"/>
<path fill="#FFFFFF" d="M58.9,9.5c0,5.2-4.2,9.4-9.4,9.4c-5.2,0-9.4-4.2-9.4-9.4c0-5.2,4.2-9.4,9.4-9.4C54.7,0.1,58.9,4.3,58.9,9.5
	L58.9,9.5z M58.9,9.5"/>
<path fill="#FFFFFF" d="M36.2,9.5c0,5.2-4.2,9.4-9.4,9.4c-5.2,0-9.4-4.2-9.4-9.4c0-5.2,4.2-9.4,9.4-9.4C32,0.1,36.2,4.3,36.2,9.5
	L36.2,9.5z M36.2,9.5"/>
<path fill="#FFFFFF" d="M74.9,19.3c2.9,1.3,6,2.8,6.1,2.8c0.5,0.2,1,0.3,1.4,0.3c1.3,0,2.5-0.7,3.1-1.9c0.8-1.7,0.1-3.7-1.6-4.5
	c-0.1-0.1-1.4-0.6-3-1.4C79.6,16.8,77.5,18.5,74.9,19.3L74.9,19.3z M74.9,19.3"/>
<path fill="#FFFFFF" d="M81.6,9.5c0,5.2-4.2,9.4-9.4,9.4c-5.2,0-9.4-4.2-9.4-9.4c0-5.2,4.2-9.4,9.4-9.4C77.4,0.1,81.6,4.3,81.6,9.5
	L81.6,9.5z M81.6,9.5"/>
<path fill="#FFFFFF" d="M97.9,10.6c-1.8-0.9-4-0.1-4.9,1.7c-1.2,2.4-4.7,8.2-8.8,10.9c-0.6,0.3-1.2,0.5-1.9,0.5
	c-0.6,0-1.2-0.1-1.7-0.4c-0.1,0-3.8-1.8-7-3.2l-1.4,1.3l-1.9-1.8c-0.4-0.1-0.8-0.2-1.2-0.3c-0.8,0.4-1.7,0.8-2.7,1.4
	c0.1-0.4,0.1-0.8,0-1.2c0.4-0.2,0.8-0.5,1.3-0.7c-2.2-1-4-2.8-5.1-5c-0.6,0.4-1.2,0.7-1.7,1.1c-0.8-0.5-1.6-0.9-2.2-1.2
	c-1,2.2-2.8,4-5,5c1.8,0.9,6.2,3.4,7.4,4.2c0.3,0.2,0.6,0.3,0.8,0.4V41c0,1.5,0.2,3,0.7,4.3c0,0.1,0,0.3,0,0.4v4h0
	c0,0.1,0,0.1,0,0.2l0,34.9c0,2.4,1.9,4.3,4.3,4.3c2.4,0,4.3-1.9,4.3-4.3l0-34.9c0-0.1,0-0.1,0-0.2h0.6c0,0.1,0,0.1,0,0.2l0,34.9
	c0,2.4,1.9,4.3,4.3,4.3c2.4,0,4.3-1.9,4.3-4.3l0-34.9c0-0.1,0-0.1,0-0.2h0l0-4.5c0,0,0.8-1,0.8-4.7c0-1.6,0.1-6.8,0.2-8.7
	c0.4,0,0.9-0.1,1.3-0.2l0,0c0,0,0,0,0,0c0.4-0.1,0.8-0.2,1.3-0.3c8.9-2.8,14.8-14.5,15.4-15.8C100.5,13.6,99.7,11.5,97.9,10.6
	L97.9,10.6z M97.9,10.6"/>
</svg>
