<?xml version="1.0" encoding="utf-8"?>
<!-- Generator: Adobe Illustrator 18.1.1, SVG Export Plug-In . SVG Version: 6.00 Build 0)  -->
<svg version="1.1" id="Layer_1" xmlns="http://www.w3.org/2000/svg" xmlns:xlink="http://www.w3.org/1999/xlink" x="0px" y="0px"
	 viewBox="0 0 90 67" enable-background="new 0 0 90 67" xml:space="preserve">
<path fill="#FFFFFF" d="M90,8.3v28.1c0,0-5.8,1.2-7,1.3c-1.2,0.2-5,1.4-7.7-1.3C71.1,32.3,56.1,17,56.1,17s-2.6-2.6-6.7-0.3
	c-3.8,2.1-9.4,5.1-11.8,6.2c-0.8,0.6-1.9,1-3,1c-2.9,0-5.2-2.4-5.2-5.3c0-2.3,1.4-4.3,3.4-5c5.4-3.4,16.6-9.9,21.3-12.4
	c2.9-1.6,4.9-1.7,8.9,1.7c4.8,4.2,9.1,8,9.1,8s2,1,3.6,0.7C79.3,11,90,8.3,90,8.3L90,8.3z M30.5,55.8c0.7-1.9,0.5-4.1-0.9-5.5
	c-1.2-1.3-3.1-1.7-4.8-1.3c0.5-1.8,0.2-3.6-1-5c-1.3-1.3-3.1-1.7-4.8-1.3c0.5-1.8,0.2-3.7-1-5c-2-2.1-5.4-2-7.6,0.2
	c-2.2,2.2-3.6,6.2-1.7,8.5c2,2.3,4.2,0.9,6,0.5c-0.5,1.8-1.9,3.4-0.1,5.7c1.8,2.3,4.2,0.9,6,0.5c-0.5,1.8-1.9,3.6-0.2,5.7
	c1.7,2.1,4.6,1,6.4,0.4c-0.7,1.9-2.3,4-0.3,6.3c2,2.3,6.5,1.2,8.8-1c2.2-2.2,2.4-5.7,0.5-7.7C34.4,55.6,32.4,55.2,30.5,55.8
	L30.5,55.8z M71.2,41.2C55.1,24.6,62.7,32.4,54,23.5c0,0-2.6-2.7-6.1-1.1c-2.4,1.1-5.5,2.6-7.9,3.7c-2.6,1.4-4.8,1.8-5.3,1.8
	c-5,0-9-4.1-9-9.3c0-3.3,1.7-6.2,4.3-7.8c3.6-2.6,11.8-7.1,11.8-7.1s-2.5-3.3-8-3.3c-5.5,0-17,7.8-17,7.8S13.6,10.3,9,8.4L0,5.2
	v32.1c0,0,2.6,0.8,4.9,1.7c0.5-1.5,1.4-2.9,2.5-4.1c3.8-3.7,10.1-3.8,13.6-0.1c1,1.1,1.8,2.5,2.2,3.9c1.4,0.4,2.7,1.2,3.7,2.3
	c1,1.1,1.8,2.5,2.2,3.9c1.4,0.4,2.7,1.2,3.7,2.3c1.2,1.2,1.9,2.7,2.3,4.3c1.5,0.4,2.8,1.2,3.8,2.4c2.1,2.2,2.8,5.2,2.4,8.1v0
	c0,0,0,0,0,0c0.1,0.1,1.3,1.5,2.1,2.3c1.5,1.6,4,1.6,5.6,0c1.5-1.6,1.5-4.2,0-5.8c-0.1,0-0.1-0.1-0.2-0.1c0,0,0,0,0,0
	c-5.2-5.4-5.5-5.7-5-6.3c0.5-0.5,1.3,0.6,7.1,6.6c0,0,0.1,0,0.1,0.1c0.1,0.2,0.2,0.3,0.4,0.5c1.5,1.6,4,1.6,5.6,0
	c1.5-1.6,1.5-4.2,0-5.8c-0.1-0.1-0.2-0.1-0.3-0.2c-0.1-0.1-0.2-0.2-0.2-0.3c-5.3-5.5-5.9-6.5-5.5-6.9c0.5-0.5,2.9,2.3,8.2,7.7
	c0,0,0,0,0,0c1.5,1.5,3.9,1.4,5.4-0.1c1.4-1.5,1.5-3.8,0.3-5.4c0-0.1-0.1-0.2-0.1-0.3c-6.7-6.9-6.4-7-6-7.4c0.4-0.4,0.4-0.4,6.9,6.2
	c0,0,0,0.1,0.1,0.1c1.5,1.6,4,1.6,5.6,0c1.5-1.6,1.5-4.2,0-5.8C71.3,41.2,71.2,41.2,71.2,41.2L71.2,41.2z M71.2,41.2"/>
</svg>
